<?xml version="1.0" encoding="UTF-8"?>
<svg width="1429px" height="957px" viewBox="0 0 1429 957" version="1.1" xmlns="http://www.w3.org/2000/svg" xmlns:xlink="http://www.w3.org/1999/xlink">
    <!-- Generator: Sketch 51.3 (57544) - http://www.bohemiancoding.com/sketch -->
    <title>Background</title>
    <desc>Created with Sketch.</desc>
    <defs></defs>
    <g id="Scene" stroke="none" stroke-width="1" fill="none" fill-rule="evenodd">
        <g id="Illustration-12" transform="translate(-586.000000, -85.000000)">
            <g id="Background" transform="translate(587.000000, 0.000000)">
                <g id="Background-Object-/-Ladder" transform="translate(1284.500000, 759.500000) scale(-1, 1) translate(-1284.500000, -759.500000) translate(1141.000000, 478.000000)">
                    <g id="Group-39" transform="translate(0.600000, 0.500000)">
                        <path d="M38.49228,561.78504 L83.76948,0.18504" id="Stroke-1" stroke="#CCE3FF" stroke-width="16.2"></path>
                        <path d="M266.16069,561.78504 L220.88349,0.18504" id="Stroke-3" stroke="#CCE3FF" stroke-width="16.2"></path>
                        <path d="M54.17073,24.01488 L245.32173,24.01488" id="Stroke-5" stroke="#CCE3FF" stroke-width="16.2"></path>
                        <path d="M41.19228,146.96856 L258.29928,146.96856" id="Stroke-7" stroke="#CCE3FF" stroke-width="16.2"></path>
                        <path d="M30.94605,294.29172 L268.54605,294.29172" id="Stroke-9" stroke="#CCE3FF" stroke-width="16.2"></path>
                        <path d="M13.50018,427.21488 L285.99228,427.21488" id="Stroke-11" stroke="#CCE3FF" stroke-width="16.2"></path>
                        <path d="M191.04849,247.28382 L128.24469,247.28382 C125.39889,247.28382 123.09219,244.97712 123.09219,242.13222 L123.09219,143.37432 C123.09219,140.52942 125.39889,138.22272 128.24469,138.22272 L191.04849,138.22272 C193.89339,138.22272 196.20009,140.52942 196.20009,143.37432 L196.20009,242.13222 C196.20009,244.97712 193.89339,247.28382 191.04849,247.28382" id="Fill-14" fill="#CCE3FF"></path>
                        <path d="M149.09391,384.64236 L86.29101,384.64236 C83.44521,384.64236 81.13851,382.33566 81.13851,379.48986 L81.13851,290.28636 C81.13851,287.44146 83.44521,285.13476 86.29101,285.13476 L149.09391,285.13476 C151.93971,285.13476 154.24641,287.44146 154.24641,290.28636 L154.24641,379.48986 C154.24641,382.33566 151.93971,384.64236 149.09391,384.64236" id="Fill-16" fill="#CCE3FF"></path>
                        <path d="M22.29228,561.78504 L67.56948,0.18504" id="Stroke-18" stroke="#DCEEFF" stroke-width="27"></path>
                        <path d="M249.96069,561.78504 L204.68349,0.18504" id="Stroke-20" stroke="#DCEEFF" stroke-width="27"></path>
                        <path d="M40.67073,24.01488 L231.82173,24.01488" id="Stroke-22" stroke="#DCEEFF" stroke-width="16.2"></path>
                        <path d="M27.69228,146.96856 L244.79928,146.96856" id="Stroke-24" stroke="#DCEEFF" stroke-width="16.2"></path>
                        <path d="M17.44605,294.29172 L255.04605,294.29172" id="Stroke-26" stroke="#DCEEFF" stroke-width="16.2"></path>
                        <path d="M0.00018,427.21488 L272.49228,427.21488" id="Stroke-28" stroke="#DCEEFF" stroke-width="16.2"></path>
                        <path d="M137.90808,354.35745 L75.87648,354.35745 C72.81828,354.35745 70.33878,351.87795 70.33878,348.81885 L70.33878,290.67345 C70.33878,287.61435 72.81828,285.13395 75.87648,285.13395 L143.44578,285.13395 L143.44578,348.81885 C143.44578,351.87795 140.96628,354.35745 137.90808,354.35745" id="Fill-30" fill="#ECF6FF"></path>
                        <polygon id="Fill-32" fill="#DCEEFF" points="70.3386 342.5499 143.4456 342.5499 143.4456 324.2214 70.3386 324.2214"></polygon>
                        <path d="M148.84425,285.13917 C145.86435,285.13917 143.44425,287.55117 143.44425,290.53917 L143.44425,285.13917 L148.84425,285.13917 Z" id="Fill-34" fill="#ECF6FF"></path>
                        <path d="M179.86176,214.09146 L117.83106,214.09146 C114.77196,214.09146 112.29246,211.61196 112.29246,208.55286 L112.29246,143.76096 C112.29246,140.70186 114.77196,138.22236 117.83106,138.22236 L185.39946,138.22236 L185.39946,208.55286 C185.39946,211.61196 182.91996,214.09146 179.86176,214.09146" id="Fill-35" fill="#ECF6FF"></path>
                        <polygon id="Fill-36" fill="#DCEEFF" points="112.293 201.1509 185.4 201.1509 185.4 192.7539 112.293 192.7539"></polygon>
                        <polygon id="Fill-37" fill="#DCEEFF" points="112.293 184.554 185.4 184.554 185.4 176.157 112.293 176.157"></polygon>
                        <path d="M190.79802,138.2274 C187.81902,138.2274 185.39802,140.8707 185.39802,144.1458 L185.39802,138.2274 L190.79802,138.2274 Z" id="Fill-38" fill="#ECF6FF"></path>
                    </g>
                </g>
                <g id="Background-Object-/-Door-/-1" transform="translate(910.000000, 562.500000) scale(-1, 1) translate(-910.000000, -562.500000) translate(729.000000, 84.000000)">
                    <g id="Group-24" transform="translate(0.800000, 0.600000)">
                        <polygon id="Fill-1" fill="#DCEEFF" points="0 955.224 349.4772 955.224 349.4772 201.9933 0 201.9933"></polygon>
                        <polygon id="Fill-2" fill="#CCE3FF" points="41.5386 955.224 319.5693 955.224 319.5693 235.224 41.5386 235.224"></polygon>
                        <polygon id="Fill-3" fill="#DCEEFF" points="142.506 878.922 218.6019 878.922 218.6019 706.5378 142.506 706.5378"></polygon>
                        <polygon id="Fill-4" fill="#DCEEFF" points="142.506 478.2825 218.6019 478.2825 218.6019 305.8992 142.506 305.8992"></polygon>
                        <polygon id="Fill-5" fill="#DCEEFF" points="142.506 678.6018 218.6019 678.6018 218.6019 506.2176 142.506 506.2176"></polygon>
                        <path d="M67.58856,547.6284 L118.74816,547.6284" id="Stroke-6" stroke="#B6D4FF" stroke-width="12.6"></path>
                        <polygon id="Fill-7" fill="#B6D4FF" points="349.4772 955.224 360.8307 955.224 360.8307 201.9933 349.4772 201.9933"></polygon>
                        <polygon id="Fill-8" fill="#B6D4FF" points="30.1842 955.224 41.5377 955.224 41.5377 235.224 30.1842 235.224"></polygon>
                        <path d="M64.90566,607.89501 C58.32666,607.89501 52.99416,602.56251 52.99416,595.98441 L52.99416,541.62171 C52.99416,535.04361 58.32666,529.71111 64.90566,529.71111 C71.48466,529.71111 76.81716,535.04361 76.81716,541.62171 L76.81716,595.98441 C76.81716,602.56251 71.48466,607.89501 64.90566,607.89501" id="Fill-9" fill="#B6D4FF"></path>
                        <path d="M360.83079,175.91256 C360.83079,79.85286 282.95919,1.98036 186.89859,1.98036 C90.83799,1.98036 12.96639,79.85286 12.96639,175.91256 L360.83079,175.91256 Z" id="Fill-11" fill="#B6D4FF"></path>
                        <path d="M347.86467,174.83238 C347.86467,78.77268 269.99217,0.89928 173.93247,0.89928 C77.87187,0.89928 0.00027,78.77268 0.00027,174.83238 L347.86467,174.83238 Z" id="Fill-14" fill="#DCEEFF"></path>
                        <path d="M347.86467,175.91256 C347.86467,79.85286 269.99217,1.98036 173.93247,1.98036 C77.87187,1.98036 0.00027,79.85286 0.00027,175.91256 L347.86467,175.91256 Z" id="Fill-17" fill="#DCEEFF"></path>
                        <path d="M302.2578,146.74959 L30.4731,146.74959 C44.5518,81.37989 100.0458,32.59269 166.3659,32.59269 C232.686,32.59269 288.1791,81.37989 302.2578,146.74959" id="Fill-19" fill="#B6D4FF"></path>
                        <path d="M316.30401,146.74959 L44.51931,146.74959 C58.59801,81.37989 114.09201,32.59269 180.41211,32.59269 C246.73221,32.59269 302.22531,81.37989 316.30401,146.74959" id="Fill-21" fill="#FFFFFF"></path>
                    </g>
                </g>
                <g id="Background-Object-/-Pluteus-/-3" transform="translate(373.500000, 307.500000) scale(-1, 1) translate(-373.500000, -307.500000) translate(176.000000, 226.000000)">
                    <g id="Group-29" transform="translate(0.200000, 0.800000)">
                        <polygon id="Fill-1" fill="#DCEEFF" points="161.22424 104.5304 238.41384 104.5304 248.83784 0.4 171.64824 0.4"></polygon>
                        <polygon id="Stroke-2" stroke="#DCEEFF" stroke-width="4" points="161.22424 104.5304 238.41384 104.5304 248.83784 0.4 171.64824 0.4"></polygon>
                        <polygon id="Fill-4" fill="#FFFFFF" points="157.05784 104.5304 235.68344 104.5304 246.10824 0.4 167.48184 0.4"></polygon>
                        <polygon id="Stroke-5" stroke="#DCEEFF" stroke-width="4" points="157.05784 104.5304 235.68344 104.5304 246.10824 0.4 167.48184 0.4"></polygon>
                        <polygon id="Fill-7" fill="#DCEEFF" points="172.1172 90.7812 223.3772 90.7812 231.0484 14.1492 179.7884 14.1492"></polygon>
                        <polygon id="Fill-8" fill="#DCEEFF" points="365.0844 31.37024 357.8604 103.51504 263.0092 103.51504 270.234 31.37024"></polygon>
                        <polygon id="Stroke-9" stroke="#DCEEFF" stroke-width="4" points="365.0844 31.37024 357.8604 103.51504 263.0092 103.51504 270.234 31.37024"></polygon>
                        <polygon id="Fill-10" fill="#FFFFFF" points="362.96248 31.37024 355.73848 103.51504 259.12248 103.51504 266.34728 31.37024"></polygon>
                        <polygon id="Stroke-11" stroke="#DCEEFF" stroke-width="4" points="362.96248 31.37024 355.73848 103.51504 259.12248 103.51504 266.34728 31.37024"></polygon>
                        <polygon id="Fill-12" fill="#CCE3FF" points="342.59144 45.52336 338.20184 89.36176 279.49384 89.36176 283.88344 45.52336"></polygon>
                        <path d="M44.44136,76.54992 C44.44136,82.07232 48.91896,86.54992 54.44216,86.54992 L144.41736,86.54992 L144.41736,66.54912 L54.44216,66.54912 C48.91896,66.54912 44.44136,71.02672 44.44136,76.54992" id="Fill-13" fill="#CCE3FF"></path>
                        <path d="M104.95784,76.54992 C104.95784,79.74672 107.54904,82.33872 110.74664,82.33872 L144.17544,82.33872 C144.30904,82.33872 144.41704,82.23152 144.41704,82.09872 L144.41704,71.00032 C144.41704,70.86752 144.30904,70.76032 144.17544,70.76032 L110.74664,70.76032 C107.54904,70.76032 104.95784,73.35232 104.95784,76.54992" id="Fill-15" fill="#DCEEFF"></path>
                        <path d="M31.8836,86.54992 L31.8836,106.55072 L130.0908,106.55072 C135.614,106.55072 140.0916,102.07312 140.0916,96.55072 C140.0916,91.02752 135.614,86.54992 130.0908,86.54992 L31.8836,86.54992 Z" id="Fill-17" fill="#CCE3FF"></path>
                        <path d="M31.8836,90.81712 L31.8836,102.28432 L72.2628,102.28432 C75.4292,102.28432 77.9964,99.71712 77.9964,96.55072 C77.9964,93.38352 75.4292,90.81712 72.2628,90.81712 L31.8836,90.81712 Z" id="Fill-19" fill="#DCEEFF"></path>
                        <polygon id="Fill-21" fill="#DCEEFF" points="0 119.8376 338.5424 119.8376 338.5424 105.616 0 105.616"></polygon>
                        <polygon id="Fill-23" fill="#CCE3FF" points="338.5424 119.8376 394.236 119.8376 394.236 105.616 338.5424 105.616"></polygon>
                        <polygon id="Fill-24" fill="#B6D4FF" points="82.51248 119.83744 108.95008 161.31424 108.95008 119.83744"></polygon>
                        <polygon id="Fill-25" fill="#CCE3FF" points="67.882 119.83744 94.3196 161.31424 108.95 161.31424 82.5124 119.83744"></polygon>
                        <polygon id="Fill-26" fill="#B6D4FF" points="276.41408 119.83744 302.85168 161.31424 302.85168 119.83744"></polygon>
                        <polygon id="Fill-27" fill="#CCE3FF" points="261.7836 119.83744 288.2212 161.31424 302.8516 161.31424 276.414 119.83744"></polygon>
                    </g>
                </g>
                <g id="Group-24" transform="translate(280.600000, 673.000000)">
                    <path d="M125.48352,44.26696 C125.48352,68.71496 110.61952,88.53336 92.28352,88.53336 C73.94752,88.53336 59.08352,68.71496 59.08352,44.26696 C59.08352,19.81896 73.94752,0.00056 92.28352,0.00056 C110.61952,0.00056 125.48352,19.81896 125.48352,44.26696" id="Fill-1" fill="#CCE3FF"></path>
                    <path d="M92.5316,276.77048 L92.5316,46.51768" id="Stroke-3" stroke="#DCEEFF" stroke-width="7.2"></path>
                    <path d="M56.77688,109.29352 C72.45448,124.97192 75.63208,147.21272 63.87368,158.97192 C52.11528,170.72952 29.87368,167.55272 14.19528,151.87512 C-1.48232,136.19672 -4.65912,113.95512 7.09848,102.19672 C18.85768,90.43832 41.09848,93.61592 56.77688,109.29352" id="Fill-5" fill="#CCE3FF"></path>
                    <path d="M168.72064,141.50488 C181.36304,154.14728 177.94704,178.06088 161.09024,194.91768 C144.23424,211.77368 120.32064,215.18968 107.67824,202.54728" id="Fill-8" fill="#CCE3FF"></path>
                    <path d="M151.68864,163.7748 L93.51424,222.1156" id="Stroke-10" stroke="#DCEEFF" stroke-width="7.2"></path>
                    <path d="M134.87888,107.98376 L92.36528,149.99736" id="Stroke-12" stroke="#DCEEFF" stroke-width="7.2"></path>
                    <path d="M48.22224,200.206 L92.63584,245.1196" id="Stroke-14" stroke="#DCEEFF" stroke-width="7.2"></path>
                    <path d="M32.91288,128.31264 L92.28328,188.39024" id="Stroke-16" stroke="#DCEEFF" stroke-width="7.2"></path>
                    <path d="M110.33472,355.84704 L74.72912,355.84704 C47.38112,355.84704 25.00592,333.47184 25.00592,306.12384 L25.00592,259.33504 L160.05792,259.33504 L160.05792,306.12384 C160.05792,333.47184 137.68272,355.84704 110.33472,355.84704" id="Fill-18" fill="#ECF6FF"></path>
                    <path d="M160.05776,285.3408 L25.00576,285.3408" id="Stroke-20" stroke="#DCEEFF" stroke-width="7.2"></path>
                    <path d="M160.05776,311.42552 L25.00576,311.42552" id="Stroke-22" stroke="#DCEEFF" stroke-width="7.2"></path>
                </g>
                <g id="Group-16" transform="translate(463.600000, 676.000000)">
                    <path d="M130.43352,44.91904 C130.43352,44.91904 69.09432,180.30384 61.77032,327.50384 C61.77032,327.50384 96.10152,178.33504 130.43352,44.91904" id="Fill-1" fill="#DCEEFF"></path>
                    <path d="M20.68424,148.96048 C20.68424,148.96048 64.83384,150.10928 71.55544,297.30928 C71.55544,297.30928 52.71464,186.21168 20.68424,148.96048" id="Fill-3" fill="#DCEEFF"></path>
                    <path d="M65.76784,0.79952 C65.76784,0.79952 91.54064,156.53872 66.17264,315.01232 C66.17264,315.01232 67.67984,149.49712 65.76784,0.79952" id="Fill-5" fill="#DCEEFF"></path>
                    <path d="M100.53352,356.68704 L36.79192,356.68704 C36.31352,356.68704 35.83672,356.67824 35.36152,356.66064 C6.29672,355.57424 -9.87368,318.81104 6.58712,292.28784 L21.18952,268.76144 L116.13592,268.76144 L130.73752,292.28784 C147.19912,318.81104 131.02872,355.57424 101.96392,356.66064 C101.48872,356.67824 101.01272,356.68704 100.53352,356.68704" id="Fill-8" fill="#ECF6FF"></path>
                    <path d="M-8e-05,322.87144 L137.32552,322.87144" id="Stroke-11" stroke="#B6D4FF" stroke-width="7.2"></path>
                    <path d="M3.18736,300.13352 L134.58016,300.13352" id="Stroke-14" stroke="#B6D4FF" stroke-width="7.2"></path>
                </g>
                <g id="Group-14" transform="translate(1262.000000, 133.000000)">
                    <path d="M155.4015,70.763 C155.4015,109.844 123.7195,141.526 84.6375,141.526 C45.5565,141.526 13.8755,109.844 13.8755,70.763 C13.8755,31.681 45.5565,0 84.6375,0 C123.7195,0 155.4015,31.681 155.4015,70.763" id="Fill-1" fill="#CCE3FF"></path>
                    <path d="M141.5265,70.763 C141.5265,109.844 109.8435,141.526 70.7625,141.526 C31.6815,141.526 0.0005,109.844 0.0005,70.763 C0.0005,31.681 31.6815,0 70.7625,0 C109.8435,0 141.5265,31.681 141.5265,70.763" id="Fill-4" fill="#DCEEFF"></path>
                    <path d="M124.3869,70.7577 C124.3869,98.3797 103.5099,121.1177 76.6849,124.0647 C74.7379,124.2797 72.7689,124.3867 70.7689,124.3867 C41.1469,124.3867 17.1389,100.3797 17.1389,70.7577 C17.1389,41.1467 41.1469,17.1387 70.7689,17.1387 C72.7689,17.1387 74.7379,17.2467 76.6849,17.4617 C103.5099,20.4087 124.3869,43.1467 124.3869,70.7577" id="Fill-6" fill="#CCE3FF"></path>
                    <path d="M124.3869,70.7577 C124.3869,98.3797 103.5099,121.1177 76.6849,124.0647 C49.8479,121.1177 28.9709,98.3797 28.9709,70.7577 C28.9709,43.1467 49.8479,20.4087 76.6849,17.4617 C103.5099,20.4087 124.3869,43.1467 124.3869,70.7577" id="Fill-8" fill="#ECF6FF"></path>
                    <path d="M73.089,40.9427 L90.464,78.8377" id="Stroke-10" stroke="#CCE3FF" stroke-width="8"></path>
                    <path d="M92.1193,62.951 L54.0593,104.321" id="Stroke-12" stroke="#CCE3FF" stroke-width="8"></path>
                </g>
                <g id="Group-33" transform="translate(0.200000, 829.600000)">
                    <path d="M90.48402,29.63424 C92.95962,46.39164 84.54402,60.68424 84.54402,60.68424 C84.54402,60.68424 72.11382,47.80824 69.63762,31.05024 C67.16202,14.29284 75.57822,0.00024 75.57822,0.00024 C75.57822,0.00024 88.00842,12.87684 90.48402,29.63424" id="Fill-1" fill="#E9F6FF"></path>
                    <path d="M86.86206,40.58106 C97.93386,55.65606 97.53306,71.04366 97.53306,71.04366 C97.53306,71.04366 79.18086,61.99026 68.10906,46.91526 C57.03726,31.84026 57.43806,16.45206 57.43806,16.45206 C57.43806,16.45206 75.79026,25.50606 86.86206,40.58106" id="Fill-3" fill="#E9F6FF"></path>
                    <path d="M100.76196,31.4568 C97.82136,48.18 85.03536,60.8952 85.03536,60.8952 C85.03536,60.8952 77.01816,46.497 79.95876,29.7744 C82.89936,13.0512 95.68536,0.336 95.68536,0.336 C95.68536,0.336 103.70256,14.7336 100.76196,31.4568" id="Fill-5" fill="#E9F6FF"></path>
                    <path d="M109.98258,43.57134 C100.71678,59.19654 83.48658,69.21294 83.48658,69.21294 C83.48658,69.21294 81.27918,53.89614 90.54498,38.27094 C99.81018,22.64514 117.04038,12.62874 117.04038,12.62874 C117.04038,12.62874 119.24778,27.94614 109.98258,43.57134" id="Fill-7" fill="#E9F6FF"></path>
                    <path d="M174.38094,93.4335 C174.38094,126.5463 135.41754,153.3903 87.35334,153.3903 C39.28914,153.3903 0.32574,126.5463 0.32574,93.4335 C0.32574,60.3201 39.28914,33.4767 87.35334,33.4767 C135.41754,33.4767 174.38094,60.3201 174.38094,93.4335" id="Fill-9" fill="#CCE3FF"></path>
                    <path d="M141.25848,200.31288 L42.27108,200.31288 C27.07908,200.31288 14.76348,187.99728 14.76348,172.80528 L14.76348,168.06408 C14.76348,152.87268 27.07908,140.55648 42.27108,140.55648 L141.25848,140.55648 C156.45048,140.55648 168.76608,152.87268 168.76608,168.06408 L168.76608,172.80528 C168.76608,187.99728 156.45048,200.31288 141.25848,200.31288" id="Fill-11" fill="#DCEEFF"></path>
                    <path d="M37.62312,51.12294 L21.58152,38.69034" id="Stroke-13" stroke="#B6D4FF" stroke-width="5.4"></path>
                    <path d="M14.76336,115.45128 L0.32556,125.33928" id="Stroke-15" stroke="#B6D4FF" stroke-width="5.4"></path>
                    <path d="M56.72436,110.0577 L81.63936,114.1005" id="Stroke-17" stroke="#B6D4FF" stroke-width="5.4"></path>
                    <path d="M120.43572,49.10028 L135.47892,30.61548" id="Stroke-19" stroke="#B6D4FF" stroke-width="5.4"></path>
                    <path d="M147.91176,69.21318 L164.35476,58.74258" id="Stroke-21" stroke="#B6D4FF" stroke-width="5.4"></path>
                    <path d="M151.12008,123.31158 L166.76088,133.33758" id="Stroke-23" stroke="#B6D4FF" stroke-width="5.4"></path>
                    <path d="M63.95658,73.35486 L56.51418,56.14806" id="Stroke-25" stroke="#FFFFFF" stroke-width="5.4"></path>
                    <path d="M135.15594,92.1195 L117.27054,100.5873" id="Stroke-27" stroke="#FFFFFF" stroke-width="5.4"></path>
                    <path d="M48.6396,82.27842 L31.6122,71.01342" id="Stroke-29" stroke="#FFFFFF" stroke-width="5.4"></path>
                    <polyline id="Stroke-31" stroke="#B6D4FF" stroke-width="5.4" points="14.76336 164.43126 45.56196 176.43846 76.36176 164.43126 107.16036 176.43846 137.96316 164.43126 168.76596 176.43846"></polyline>
                </g>
                <g id="Background-Object-/-Pluteus-/-4" transform="translate(373.500000, 137.000000) scale(-1, 1) translate(-373.500000, -137.000000) translate(176.000000, 109.000000)">
                    <g id="Group-7" transform="translate(0.200000, 0.000000)">
                        <polygon id="Fill-1" fill="#DCEEFF" points="0 14.22096 338.5416 14.22096 338.5416 0.00016 0 0.00016"></polygon>
                        <polygon id="Fill-2" fill="#CCE3FF" points="338.5416 14.22096 394.236 14.22096 394.236 0.00016 338.5416 0.00016"></polygon>
                        <polygon id="Fill-3" fill="#B6D4FF" points="82.51272 14.22072 108.94952 55.69752 108.94952 14.22072"></polygon>
                        <polygon id="Fill-4" fill="#CCE3FF" points="67.88232 14.22072 94.31912 55.69752 108.94952 55.69752 82.51272 14.22072"></polygon>
                        <polygon id="Fill-5" fill="#B6D4FF" points="276.41376 14.22072 302.85136 55.69752 302.85136 14.22072"></polygon>
                        <polygon id="Fill-6" fill="#CCE3FF" points="261.78336 14.22072 288.22096 55.69752 302.85136 55.69752 276.41376 14.22072"></polygon>
                    </g>
                </g>
            </g>
        </g>
    </g>
</svg>