<?xml version="1.0" encoding="utf-8"?>
<!-- Generator: Adobe Illustrator 21.0.0, SVG Export Plug-In . SVG Version: 6.00 Build 0)  -->
<svg version="1.1" id="Layer_1" xmlns="http://www.w3.org/2000/svg" xmlns:xlink="http://www.w3.org/1999/xlink" x="0px" y="0px"
	 viewBox="0 0 142 76" style="enable-background:new 0 0 142 76;" xml:space="preserve">
<style type="text/css">
	.st0{fill:#FFFFFF;}
	.st1{enable-background:new    ;}
</style>
<title>Team Bravo - Logo</title>
<g id="Home-Updated">
	<g id="Desktop" transform="translate(-20.000000, -26.000000)">
		<g id="Header">
			<g id="Logo" transform="translate(20.000000, 26.000000)">
				<g>
					<g id="Shape">
						<g>
							<path id="path-1" class="st0" d="M0,61.8V30.3h10.9c3.8,0,6.6,0.7,8.6,2.2c2,1.5,3.1,3.9,2.9,6.5c0,1.4-0.4,2.9-1.2,4.1
								c-0.8,1.2-1.9,2.1-3.3,2.6c1.5,0.3,2.8,1.2,3.8,2.4c0.9,1.3,1.4,2.9,1.4,4.5c0,3-1,5.3-2.9,6.9c-1.9,1.6-4.6,2.3-8.2,2.4
								L0,61.8z M6.1,43.1h4.7c3.2-0.1,4.8-1.4,4.8-3.9c0.1-1.2-0.3-2.3-1.2-3.1c-1.2-0.7-2.5-1-3.9-0.9H6.1V43.1z M6.1,48.5V57h5.4
								c1.3,0.1,2.6-0.3,3.6-1.1c0.9-0.8,1.3-1.9,1.3-3c0-2.9-1.5-4.3-4.4-4.4L6.1,48.5z"/>
						</g>
					</g>
					<g id="Shape_1_">
						<g>
							<path id="path-2" class="st0" d="M40.7,50.3h-5.1v11.5h-6.4V30.3h11.5c3.7,0,6.5,0.8,8.5,2.5c2,1.7,3.2,4.3,3,7
								c0.1,1.9-0.4,3.8-1.4,5.4c-1,1.5-2.5,2.7-4.2,3.4l6.8,12.9v0.3h-6.9L40.7,50.3z M35.2,44.6h5.2c1.4,0.1,2.7-0.4,3.8-1.2
								c0.9-0.9,1.4-2.1,1.3-3.4c0.1-1.3-0.4-2.6-1.3-3.5c-1.1-0.9-2.5-1.4-3.9-1.3h-5.1L35.2,44.6z"/>
						</g>
					</g>
					<g id="Shape_2_">
						<g>
							<path id="path-3" class="st0" d="M74.8,55.3H63.6l-2.1,6.5h-6.8l11.6-31.5h5.9l11.7,31.5h-6.8L74.8,55.3z M65.5,50.6h7.8
								l-3.9-11.8L65.5,50.6z"/>
						</g>
					</g>
					<g id="Shape_3_">
						<g>
							<polygon id="path-4" class="st0" points="98.3,54 105.5,30.3 112.9,30.3 101.7,61.8 94.9,61.8 83.7,30.3 91.1,30.3 							
								"/>
						</g>
					</g>
					<g id="Shape_4_">
						<g>
							<path id="path-5" class="st0" d="M142,46.2c0.1,2.8-0.5,5.6-1.6,8.2c-1,2.3-2.6,4.2-4.7,5.5c-4.3,2.6-9.6,2.6-14,0
								c-2.1-1.3-3.7-3.2-4.7-5.4c-1.2-2.5-1.7-5.3-1.7-8.1v-1.6c-0.1-2.8,0.5-5.7,1.7-8.3c1-2.3,2.6-4.2,4.7-5.5
								c4.3-2.6,9.6-2.6,13.9,0c2.1,1.3,3.7,3.2,4.7,5.5c1.2,2.6,1.7,5.4,1.7,8.3V46.2z M135,45.3c0-3.3-0.6-5.9-1.8-7.6
								c-1.2-1.6-3-2.6-5-2.6c-2,0-3.9,1-5,2.6c-1.2,1.7-1.8,4.2-1.8,7.5v1.5c0,3.3,0.6,5.8,1.8,7.6c1.1,1.7,3,2.7,5,2.7
								c2,0,3.9-1,5.1-2.6c1.2-1.7,1.8-4.2,1.8-7.6L135,45.3z"/>
						</g>
					</g>
					<g id="Shape_5_">
						<g>
							<polygon id="path-6" class="st0" points="3,64.2 4,65.8 6.1,66.1 4.6,67.3 4.9,69.1 3,68.3 1.2,69.1 1.5,67.3 0,66.1 
								2.1,65.8 							"/>
						</g>
					</g>
					<g id="Shape_6_">
						<g>
							<polygon id="path-7" class="st0" points="14,64.2 14.9,65.8 17,66.1 15.5,67.3 15.8,69.1 14,68.3 12.1,69.1 12.4,67.3 
								10.9,66.1 13,65.8 							"/>
						</g>
					</g>
					<g id="Shape_7_">
						<g>
							<polygon id="path-8" class="st0" points="24.9,64.2 25.8,65.8 27.9,66.1 26.4,67.3 26.8,69.1 24.9,68.3 23,69.1 23.4,67.3 
								21.8,66.1 23.9,65.8 							"/>
						</g>
					</g>
					<g id="Shape_8_">
						<g>
							<polygon id="path-9" class="st0" points="34.6,64.2 35.5,65.8 37.6,66.1 36.1,67.3 36.5,69.1 34.6,68.3 32.7,69.1 33.1,67.3 
								31.6,66.1 33.7,65.8 							"/>
						</g>
					</g>
					<g id="Shape_9_">
						<g>
							<polygon id="path-10" class="st0" points="45.5,64.2 46.5,65.8 48.5,66.1 47,67.3 47.4,69.1 45.5,68.3 43.6,69.1 44,67.3 
								42.5,66.1 44.6,65.8 							"/>
						</g>
					</g>
					<g id="Shape_10_">
						<g>
							<path id="path-11" class="st0" d="M40.3,25.9L64.8,0.8C65.6,0,67-0.2,68,0.3l10.1,5V2.1l9.2,0.5v6.8l3.4,1.3
								c0.8,0.3,1.6,0.2,2.4-0.2l16.6-10.1c0.9-0.6,2.2-0.4,3,0.3l25.5,25.2c0.4,0.4,0.3,0.8-0.3,0.8h-3.5l-23-22.7L93.8,22.1h-9.2
								L67.1,3.9l-21.4,22c-0.5,0.5-1.1,0.8-1.8,0.8h-3.3C40,26.7,39.9,26.3,40.3,25.9z"/>
						</g>
					</g>
					<g id="Shape_11_">
						<g>
							<path id="path-12" class="st0" d="M47.5,25.9L66.1,7.7c0.3-0.3,0.6-0.4,1-0.4c0.4,0,0.7,0.1,1,0.4l15.7,16.2h11.1l15.7-16.2
								c0.3-0.3,0.6-0.4,1-0.4c0.4,0,0.7,0.1,1,0.4l18.5,18.1c0.1,0.1,0.2,0.3,0.1,0.5c-0.1,0.2-0.3,0.3-0.5,0.3h-2.7
								c-0.4,0-0.9-0.2-1.2-0.5l-15.3-15L96.6,26.6H81.9L67.1,11.2L53,25.9c-0.4,0.5-1.1,0.7-1.7,0.7h-3.5c-0.2,0-0.4-0.1-0.4-0.3
								S47.3,26,47.5,25.9z"/>
						</g>
					</g>
					<g id="Rectangle-path">
						<g>
							<rect id="path-13" x="63.1" y="17" class="st0" width="3.6" height="3.6"/>
						</g>
					</g>
					<g id="Rectangle-path_1_">
						<g>
							<rect id="path-14" x="68" y="17" class="st0" width="3.6" height="3.6"/>
						</g>
					</g>
					<g id="Rectangle-path_2_">
						<g>
							<rect id="path-15" x="63.1" y="23" class="st0" width="3.6" height="3.6"/>
						</g>
					</g>
					<g id="Rectangle-path_3_">
						<g>
							<rect id="path-16" x="68" y="23" class="st0" width="3.6" height="3.6"/>
						</g>
					</g>
					<g id="Rectangle-path_4_">
						<g>
							<rect id="path-17" x="106.8" y="17" class="st0" width="3.6" height="3.6"/>
						</g>
					</g>
					<g id="Rectangle-path_5_">
						<g>
							<rect id="path-18" x="112.9" y="17" class="st0" width="3.6" height="3.6"/>
						</g>
					</g>
					<g id="Rectangle-path_6_">
						<g>
							<rect id="path-19" x="106.8" y="23" class="st0" width="3.6" height="3.6"/>
						</g>
					</g>
					<g id="Rectangle-path_7_">
						<g>
							<rect id="path-20" x="112.9" y="23" class="st0" width="3.6" height="3.6"/>
						</g>
					</g>
					<g class="st1">
						<path class="st0" d="M73.8,75.6h-1.6v-3.4h-3.1v3.4h-1.6v-7.8h1.6V71h3.1v-3.2h1.6V75.6z"/>
						<path class="st0" d="M79.7,74h-2.8l-0.5,1.6h-1.7l2.9-7.8h1.5l2.9,7.8h-1.7L79.7,74z M77.3,72.7h2l-1-2.9L77.3,72.7z"/>
						<path class="st0" d="M89.1,75.6h-1.6l-3.1-5.1v5.1h-1.6v-7.8h1.6l3.1,5.2v-5.2h1.6V75.6z"/>
						<path class="st0" d="M90.5,75.6v-7.8h2.4c0.7,0,1.3,0.2,1.8,0.5c0.5,0.3,1,0.8,1.3,1.3c0.3,0.6,0.5,1.2,0.5,1.9v0.4
							c0,0.7-0.1,1.4-0.4,1.9c-0.3,0.6-0.7,1-1.3,1.3c-0.5,0.3-1.2,0.5-1.8,0.5H90.5z M92.1,69.1v5.2h0.8c0.6,0,1.1-0.2,1.4-0.6
							s0.5-1,0.5-1.8v-0.4c0-0.8-0.2-1.4-0.5-1.8c-0.3-0.4-0.8-0.6-1.4-0.6H92.1z"/>
						<path class="st0" d="M100.1,71.3l1.6-3.5h1.8l-2.6,5v2.8h-1.6v-2.8l-2.6-5h1.8L100.1,71.3z"/>
						<path class="st0" d="M106.3,67.8l2,5.7l2-5.7h2.1v7.8h-1.6v-2.1l0.2-3.7l-2.1,5.8h-1.1l-2.1-5.8l0.2,3.7v2.1h-1.6v-7.8H106.3z
							"/>
						<path class="st0" d="M118.4,74h-2.8l-0.5,1.6h-1.7l2.9-7.8h1.5l2.9,7.8h-1.7L118.4,74z M116,72.7h2l-1-2.9L116,72.7z"/>
						<path class="st0" d="M127.7,75.6h-1.6l-3.1-5.1v5.1h-1.6v-7.8h1.6l3.1,5.2v-5.2h1.6V75.6z"/>
					</g>
				</g>
			</g>
		</g>
	</g>
</g>
</svg>
