<?xml version="1.0" encoding="UTF-8"?>
<svg width="142px" height="76px" viewBox="0 0 142 76" version="1.1" xmlns="http://www.w3.org/2000/svg" xmlns:xlink="http://www.w3.org/1999/xlink">
    <!-- Generator: Sketch 51.3 (57544) - http://www.bohemiancoding.com/sketch -->
    <title>Logo</title>
    <desc>Created with Sketch.</desc>
    <defs>
        <path d="M0,61.7905046 L0,30.3030303 L10.8926661,30.3030303 C14.6506359,30.3030303 17.5008835,31.0349396 19.4434089,32.4987581 C21.4198086,34.017746 22.5142557,36.443442 22.3571971,38.9567809 C22.3846496,40.4055331 21.9761064,41.8282521 21.1862355,43.0345611 C20.3918195,44.2201402 19.2523548,45.1234007 17.9275129,45.6177702 C19.4235636,45.9594267 20.7537908,46.8248328 21.6854827,48.0625931 C22.6247189,49.3653828 23.1072996,50.9505003 23.0561432,52.5647576 C23.0561432,55.5908026 22.1060606,57.8818631 20.2058956,59.4379391 C18.3057305,60.9940151 15.582564,61.7874293 12.036396,61.8181818 L0,61.7905046 Z M6.06837607,43.0891351 L10.7885314,43.0891351 C14.0079193,43.0337807 15.6176133,41.7298751 15.6176133,39.1774184 C15.7252053,38.0090507 15.2683476,36.8602567 14.3921884,36.096019 C13.233746,35.3837084 11.8837771,35.0608713 10.5343692,35.1734443 L6.06837607,35.1734443 L6.06837607,43.0891351 Z M6.06837607,48.5125257 L6.06837607,57.0094386 L11.5147091,57.0094386 C12.7979576,57.0917619 14.066592,56.6947734 15.0820572,55.8931233 C15.9362434,55.13788 16.4014758,54.0255044 16.3437911,52.876304 C16.3437911,49.9917205 14.8763069,48.527902 11.9413385,48.4848485 L6.06837607,48.5125257 Z" id="path-1"></path>
        <path d="M40.6565185,50.2850953 L35.5328237,50.2850953 L35.5328237,61.8181818 L29.1282051,61.8181818 L29.1282051,30.3030303 L40.6565185,30.3030303 C44.3163005,30.3030303 47.1617811,31.1340774 49.1929601,32.7961715 C51.236759,34.5268935 52.3578982,37.124857 52.2214297,39.8139023 C52.2898333,41.7028881 51.8096185,43.5708563 50.839862,45.1880066 C49.8031252,46.7171373 48.346786,47.907718 46.6494116,48.6137673 L53.4017094,61.5134646 L53.4017094,61.8181818 L46.4938708,61.8181818 L40.6565185,50.2850953 Z M35.2148801,44.6277401 L40.4026211,44.6277401 C41.7652691,44.7138164 43.1084915,44.267456 44.1538977,43.3811695 C45.0648387,42.4856971 45.5484285,41.2369603 45.4805687,39.9554088 C45.5525777,38.6624754 45.1000307,37.3956562 44.2270933,36.4465434 C43.1567876,35.5053741 41.7525708,35.0452105 40.3385749,35.1722713 L35.1965812,35.1722713 L35.2148801,44.6277401 Z" id="path-2"></path>
        <path d="M74.811183,55.3267808 L63.5568968,55.3267808 L61.426231,61.7904802 L54.6153846,61.7904802 L66.1883601,30.3030303 L72.0795601,30.3030303 L83.7435897,61.8181818 L76.9418488,61.8181818 L74.811183,55.3267808 Z M65.5384615,50.5795133 L73.3053759,50.5795133 L69.3991552,38.7878788 L65.5384615,50.5795133 Z" id="path-3"></path>
        <polygon id="path-4" points="98.2936388 54.0063394 105.535872 30.3122642 112.871795 30.3122642 101.741429 61.8181818 94.8645867 61.8181818 83.7435897 30.3030303 91.0514058 30.3030303"></polygon>
        <path d="M141.994048,46.1975367 C142.064112,49.0318755 141.514823,51.8468034 140.385605,54.4402852 C139.388754,56.6909511 137.757817,58.5921016 135.69814,59.9043695 C131.387529,62.4561192 126.056648,62.4561192 121.746038,59.9043695 C119.676376,58.6045125 118.027563,56.7178406 117.003426,54.4775827 C115.84227,51.9344274 115.261083,49.1584591 115.303071,46.3560511 L115.303071,44.7615828 C115.245725,41.9126179 115.817273,39.0867175 116.975853,36.4908613 C117.982202,34.2328682 119.622203,32.3258459 121.690891,31.0081282 C125.993712,28.4518361 131.32179,28.4518361 135.624611,31.0081282 C137.693299,32.3258459 139.333299,34.2328682 140.339649,36.4908613 C141.493698,39.0876115 142.059036,41.9138652 141.994048,44.7615828 L141.994048,46.1975367 Z M134.988743,45.3467625 C134.988743,42.0086359 134.400512,39.4724056 133.224051,37.7380716 C132.04841,36.1120958 130.179605,35.1515152 128.191919,35.1515152 C126.204233,35.1515152 124.335428,36.1120958 123.159787,37.7380716 C121.983326,39.4475406 121.385904,41.9557977 121.367521,45.2628431 L121.367521,46.8106895 C121.367521,50.0617887 121.955752,52.5824783 123.132214,54.3727585 C124.274562,56.0518243 126.150192,57.0627018 128.161113,57.0831025 C130.172034,57.1035033 132.067215,56.1308807 133.242433,54.4753266 C134.40664,52.747209 134.994871,50.2296274 135.007125,46.9225821 L134.988743,45.3467625 Z" id="path-5"></path>
        <polygon id="path-6" points="3.03418803 64.2424242 3.97684839 65.8338487 6.06837607 66.0894661 4.55619174 67.3345702 4.90968938 69.0909091 3.03418803 68.2580911 1.15868669 69.0909091 1.52200371 67.3345702 0 66.0894661 2.10134705 65.8338487"></polygon>
        <polygon id="path-7" points="13.957265 64.2424242 14.8999253 65.8338487 16.991453 66.0894661 15.4792687 67.3345702 15.8327663 69.0909091 13.957265 68.2580911 12.0817636 69.0909091 12.4450806 67.3345702 10.9230769 66.0894661 13.024424 65.8338487"></polygon>
        <polygon id="path-8" points="24.8803419 64.2424242 25.8230022 65.8338487 27.9145299 66.0894661 26.4023456 67.3345702 26.7558432 69.0909091 24.8803419 68.2580911 23.0048405 69.0909091 23.3681576 67.3345702 21.8461538 66.0894661 23.9475009 65.8338487"></polygon>
        <polygon id="path-9" points="34.5897436 64.2424242 35.5324039 65.8338487 37.6239316 66.0894661 36.1117473 67.3345702 36.4652449 69.0909091 34.5897436 68.2580911 32.7142422 69.0909091 33.0775593 67.3345702 31.5555556 66.0894661 33.6569026 65.8338487"></polygon>
        <polygon id="path-10" points="45.5128205 64.2424242 46.4554809 65.8338487 48.5470085 66.0894661 47.0348242 67.3345702 47.3883219 69.0909091 45.5128205 68.2580911 43.6373192 69.0909091 44.0006362 67.3345702 42.4786325 66.0894661 44.5799795 65.8338487"></polygon>
        <path d="M40.2722672,25.8937989 L64.8077151,0.83952266 C65.6485122,-0.0264083645 66.9634737,-0.247814888 68.0472041,0.294073975 L78.1706071,5.30311107 L78.1706071,2.12132707 L87.3737009,2.57586764 L87.3737009,9.3939762 L90.7420332,10.7303255 C91.5149627,11.0369691 92.3893927,10.9627396 93.0980252,10.5303276 L109.663594,0.394072901 C110.613585,-0.188071094 111.844079,-0.0488363583 112.636193,0.730432923 L138.110357,25.8937989 C138.542902,26.3210671 138.395652,26.6665179 137.788248,26.6665179 L134.327885,26.6665179 L111.320151,3.93948935 L93.8342727,22.1211122 L84.6311789,22.1211122 L67.1453009,3.93948935 L45.7941234,25.9028897 C45.31369,26.3976251 44.6474826,26.6740184 43.9535047,26.6665179 L40.6219848,26.6665179 C40.0237837,26.6665179 39.8765342,26.3210671 40.2722672,25.8937989 Z" id="path-11"></path>
        <path d="M47.4753733,25.8783553 L66.0634862,7.68398191 C66.324503,7.42104957 66.6828694,7.27272727 67.0571322,7.27272727 C67.431395,7.27272727 67.7897614,7.42104957 68.0507782,7.68398191 L83.7087908,23.9121307 L94.8006532,23.9121307 L110.458666,7.71116474 C110.719683,7.44823239 111.078049,7.2999101 111.452312,7.2999101 C111.826575,7.2999101 112.184941,7.44823239 112.445958,7.71116474 L130.932395,25.8330506 C131.073727,25.972923 131.115775,26.1822074 131.039105,26.3641694 C130.962435,26.5461313 130.781982,26.665325 130.581153,26.6666573 L127.891376,26.6666573 C127.444637,26.6681319 127.015645,26.4953552 126.699001,26.1864273 L111.438447,11.2268106 L96.649297,26.6304135 L81.860147,26.6304135 L67.070997,11.2268106 L53.0213046,25.8964772 C52.5729378,26.3641671 51.9475402,26.6297193 51.2928227,26.6304135 L47.8173724,26.6304135 C47.6282535,26.6473428 47.4491137,26.5444056 47.3717918,26.3743742 C47.2944699,26.2043429 47.3361135,26.004925 47.4753733,25.8783553 Z" id="path-12"></path>
        <rect id="path-13" x="63.1111111" y="16.969697" width="3.64102564" height="3.63636364"></rect>
        <rect id="path-14" x="67.965812" y="16.969697" width="3.64102564" height="3.63636364"></rect>
        <rect id="path-15" x="63.1111111" y="23.030303" width="3.64102564" height="3.63636364"></rect>
        <rect id="path-16" x="67.965812" y="23.030303" width="3.64102564" height="3.63636364"></rect>
        <rect id="path-17" x="106.803419" y="16.969697" width="3.64102564" height="3.63636364"></rect>
        <rect id="path-18" x="112.871795" y="16.969697" width="3.64102564" height="3.63636364"></rect>
        <rect id="path-19" x="106.803419" y="23.030303" width="3.64102564" height="3.63636364"></rect>
        <rect id="path-20" x="112.871795" y="23.030303" width="3.64102564" height="3.63636364"></rect>
    </defs>
    <g id="Home-Updated" stroke="none" stroke-width="1" fill="none" fill-rule="evenodd">
        <g id="Desktop" transform="translate(-20.000000, -26.000000)">
            <g id="Header">
                <g id="Logo" transform="translate(20.000000, 26.000000)">
                    <g>
                        <g id="Shape" fill-rule="nonzero">
                            <use fill="#AA0000" xlink:href="#path-1"></use>
                            <use fill="#FFFFFF" xlink:href="#path-1"></use>
                        </g>
                        <g id="Shape" fill-rule="nonzero">
                            <use fill="#AA0000" xlink:href="#path-2"></use>
                            <use fill="#FFFFFF" xlink:href="#path-2"></use>
                        </g>
                        <g id="Shape" fill-rule="nonzero">
                            <use fill="#AA0000" xlink:href="#path-3"></use>
                            <use fill="#FFFFFF" xlink:href="#path-3"></use>
                        </g>
                        <g id="Shape" fill-rule="nonzero">
                            <use fill="#AA0000" xlink:href="#path-4"></use>
                            <use fill="#FFFFFF" xlink:href="#path-4"></use>
                        </g>
                        <g id="Shape" fill-rule="nonzero">
                            <use fill="#AA0000" xlink:href="#path-5"></use>
                            <use fill="#FFFFFF" xlink:href="#path-5"></use>
                        </g>
                        <g id="Shape" fill-rule="nonzero">
                            <use fill="#AA0000" xlink:href="#path-6"></use>
                            <use fill="#FFFFFF" xlink:href="#path-6"></use>
                        </g>
                        <g id="Shape" fill-rule="nonzero">
                            <use fill="#AA0000" xlink:href="#path-7"></use>
                            <use fill="#FFFFFF" xlink:href="#path-7"></use>
                        </g>
                        <g id="Shape" fill-rule="nonzero">
                            <use fill="#AA0000" xlink:href="#path-8"></use>
                            <use fill="#FFFFFF" xlink:href="#path-8"></use>
                        </g>
                        <g id="Shape" fill-rule="nonzero">
                            <use fill="#AA0000" xlink:href="#path-9"></use>
                            <use fill="#FFFFFF" xlink:href="#path-9"></use>
                        </g>
                        <g id="Shape" fill-rule="nonzero">
                            <use fill="#AA0000" xlink:href="#path-10"></use>
                            <use fill="#FFFFFF" xlink:href="#path-10"></use>
                        </g>
                        <g id="Shape" fill-rule="nonzero">
                            <use fill="#AA0000" xlink:href="#path-11"></use>
                            <use fill="#FFFFFF" xlink:href="#path-11"></use>
                        </g>
                        <g id="Shape" fill-rule="nonzero">
                            <use fill="#000000" xlink:href="#path-12"></use>
                            <use fill="#FFFFFF" xlink:href="#path-12"></use>
                        </g>
                        <g id="Rectangle-path" fill-rule="nonzero">
                            <use fill="#AA0000" xlink:href="#path-13"></use>
                            <use fill="#FFFFFF" xlink:href="#path-13"></use>
                        </g>
                        <g id="Rectangle-path" fill-rule="nonzero">
                            <use fill="#AA0000" xlink:href="#path-14"></use>
                            <use fill="#FFFFFF" xlink:href="#path-14"></use>
                        </g>
                        <g id="Rectangle-path" fill-rule="nonzero">
                            <use fill="#AA0000" xlink:href="#path-15"></use>
                            <use fill="#FFFFFF" xlink:href="#path-15"></use>
                        </g>
                        <g id="Rectangle-path" fill-rule="nonzero">
                            <use fill="#AA0000" xlink:href="#path-16"></use>
                            <use fill="#FFFFFF" xlink:href="#path-16"></use>
                        </g>
                        <g id="Rectangle-path" fill-rule="nonzero">
                            <use fill="#AA0000" xlink:href="#path-17"></use>
                            <use fill="#FFFFFF" xlink:href="#path-17"></use>
                        </g>
                        <g id="Rectangle-path" fill-rule="nonzero">
                            <use fill="#AA0000" xlink:href="#path-18"></use>
                            <use fill="#FFFFFF" xlink:href="#path-18"></use>
                        </g>
                        <g id="Rectangle-path" fill-rule="nonzero">
                            <use fill="#AA0000" xlink:href="#path-19"></use>
                            <use fill="#FFFFFF" xlink:href="#path-19"></use>
                        </g>
                        <g id="Rectangle-path" fill-rule="nonzero">
                            <use fill="#AA0000" xlink:href="#path-20"></use>
                            <use fill="#FFFFFF" xlink:href="#path-20"></use>
                        </g>
                        <text id="handyman" font-family="Roboto-Bold, Roboto" font-size="11" font-weight="bold" fill="#FFFFFF">
                            <tspan x="66.7521368" y="75.6212121">HANDYMAN</tspan>
                        </text>
                    </g>
                </g>
            </g>
        </g>
    </g>
</svg>