<?xml version="1.0" encoding="UTF-8"?>
<svg width="972px" height="930px" viewBox="0 0 972 930" version="1.1" xmlns="http://www.w3.org/2000/svg" xmlns:xlink="http://www.w3.org/1999/xlink">
    <!-- Generator: Sketch 51.3 (57544) - http://www.bohemiancoding.com/sketch -->
    <title>Illustration 14</title>
    <desc>Created with Sketch.</desc>
    <defs></defs>
    <g id="Scene" stroke="none" stroke-width="1" fill="none" fill-rule="evenodd">
        <g id="Illustration-14" transform="translate(-161.000000, 2.000000)">
            <g id="Background">
                <g id="Background-Object-/-Bedside-table-/-1" transform="translate(302.500000, 671.000000) scale(-1, 1) translate(-302.500000, -671.000000) translate(161.000000, 418.000000)">
                    <g id="Group-39" transform="translate(0.280000, 0.480000)">
                        <polygon id="Fill-1" fill="#DCEEFF" points="217.636288 0.32032 204.500928 131.52224 66.136768 131.52224 79.272128 0.32032"></polygon>
                        <polygon id="Stroke-2" stroke="#DCEEFF" stroke-width="3.2" points="217.636288 0.32032 204.500928 131.52224 66.136768 131.52224 79.272128 0.32032"></polygon>
                        <polygon id="Fill-4" fill="#FFFFFF" points="212.740672 0.32032 199.605952 131.52224 58.669632 131.52224 71.804352 0.32032"></polygon>
                        <polygon id="Stroke-5" stroke="#DCEEFF" stroke-width="3.2" points="212.740672 0.32032 199.605952 131.52224 58.669632 131.52224 71.804352 0.32032"></polygon>
                        <polygon id="Fill-7" fill="#DCEEFF" points="183.277568 25.409728 175.166208 106.432448 88.132608 106.432448 96.243968 25.409728"></polygon>
                        <polygon id="Fill-8" fill="#B6D4FF" points="21.60448 504.67648 266.55872 504.67648 266.55872 482.8608 21.60448 482.8608"></polygon>
                        <polygon id="Fill-9" fill="#DCEEFF" points="15.20448 504.67648 26.93248 504.67648 26.93248 311.5872 15.20448 311.5872"></polygon>
                        <polygon id="Fill-10" fill="#DCEEFF" points="178.57088 504.67648 190.44032 504.67648 190.44032 311.5872 178.57088 311.5872"></polygon>
                        <polygon id="Fill-11" fill="#CCE3FF" points="15.20448 490.288 26.93248 490.288 26.93248 482.86144 15.20448 482.86144"></polygon>
                        <polygon id="Fill-12" fill="#CCE3FF" points="178.57088 490.288 190.44096 490.288 190.44096 482.86144 178.57088 482.86144"></polygon>
                        <path d="M217.813824,65.163456 C220.368064,87.356736 212.062144,106.319936 212.062144,106.319936 C212.062144,106.319936 199.614144,89.300416 197.059264,67.107136 C194.505664,44.913856 202.812224,25.950656 202.812224,25.950656 C202.812224,25.950656 215.259584,42.970176 217.813824,65.163456" id="Fill-13" fill="#CCE3FF"></path>
                        <path d="M212.424448,82.970368 C223.531008,102.906368 223.212928,123.294848 223.212928,123.294848 C223.212928,123.294848 204.887808,111.358848 193.781248,91.422848 C182.674688,71.486208 182.992768,51.098368 182.992768,51.098368 C182.992768,51.098368 201.317888,63.034368 212.424448,82.970368" id="Fill-15" fill="#CCE3FF"></path>
                        <path d="M228.059456,67.544704 C225.219136,89.709824 212.552896,106.597504 212.552896,106.597504 C212.552896,106.597504 204.491456,87.547904 207.331776,65.382784 C210.172736,43.217664 222.838976,26.331264 222.838976,26.331264 C222.838976,26.331264 230.899776,45.379584 228.059456,67.544704" id="Fill-17" fill="#CCE3FF"></path>
                        <path d="M237.306944,83.564736 C228.161344,104.296896 211.054144,117.622336 211.054144,117.622336 C211.054144,117.622336 208.774464,97.336896 217.919424,76.605376 C227.065024,55.873856 244.172864,42.547776 244.172864,42.547776 C244.172864,42.547776 246.451904,62.833216 237.306944,83.564736" id="Fill-19" fill="#CCE3FF"></path>
                        <polygon id="Fill-21" fill="#ECF6FF" points="187.757568 89.579072 240.254208 89.579072 234.711808 130.939712 193.299968 130.939712"></polygon>
                        <polygon id="Fill-23" fill="#DCEEFF" points="9.3376 483.14816 196.688 483.14816 196.688 147.07456 9.3376 147.07456"></polygon>
                        <polygon id="Fill-25" fill="#CCE3FF" points="21.60448 466.23232 184.42112 466.23232 184.42112 416.4032 21.60448 416.4032"></polygon>
                        <polygon id="Fill-26" fill="#CCE3FF" points="21.60448 402.82688 184.42112 402.82688 184.42112 352.99776 21.60448 352.99776"></polygon>
                        <polygon id="Fill-27" fill="#CCE3FF" points="21.60448 339.42144 184.42112 339.42144 184.42112 289.59232 21.60448 289.59232"></polygon>
                        <polygon id="Fill-28" fill="#CCE3FF" points="21.60448 276.01664 184.42112 276.01664 184.42112 226.18752 21.60448 226.18752"></polygon>
                        <polygon id="Fill-29" fill="#CCE3FF" points="21.60448 212.61184 184.42112 212.61184 184.42112 162.78208 21.60448 162.78208"></polygon>
                        <polygon id="Fill-30" fill="#B6D4FF" points="196.688 483.14816 271.37792 483.14816 271.37792 147.07456 196.688 147.07456"></polygon>
                        <polygon id="Fill-31" fill="#CCE3FF" points="0 147.07456 204.49664 147.07456 204.49664 131.02272 0 131.02272"></polygon>
                        <polygon id="Fill-32" fill="#B6D4FF" points="204.3104 147.07456 282.10368 147.07456 282.10368 131.02272 204.3104 131.02272"></polygon>
                        <path d="M93.581952,187.696576 C93.581952,192.904896 97.804672,197.126976 103.012992,197.126976 C108.221312,197.126976 112.444032,192.904896 112.444032,187.696576 C112.444032,182.487616 108.221312,178.266176 103.012992,178.266176 C97.804672,178.266176 93.581952,182.487616 93.581952,187.696576" id="Fill-33" fill="#B6D4FF"></path>
                        <path d="M93.581952,251.101568 C93.581952,256.310528 97.804672,260.531968 103.012992,260.531968 C108.221312,260.531968 112.444032,256.310528 112.444032,251.101568 C112.444032,245.893248 108.221312,241.671168 103.012992,241.671168 C97.804672,241.671168 93.581952,245.893248 93.581952,251.101568" id="Fill-34" fill="#B6D4FF"></path>
                        <path d="M93.581952,314.5072 C93.581952,319.71552 97.804672,323.9376 103.012992,323.9376 C108.221312,323.9376 112.444032,319.71552 112.444032,314.5072 C112.444032,309.29824 108.221312,305.07616 103.012992,305.07616 C97.804672,305.07616 93.581952,309.29824 93.581952,314.5072" id="Fill-35" fill="#B6D4FF"></path>
                        <path d="M93.581952,377.912192 C93.581952,383.120512 97.804672,387.342592 103.012992,387.342592 C108.221312,387.342592 112.444032,383.120512 112.444032,377.912192 C112.444032,372.703232 108.221312,368.481792 103.012992,368.481792 C97.804672,368.481792 93.581952,372.703232 93.581952,377.912192" id="Fill-36" fill="#B6D4FF"></path>
                        <path d="M93.581952,441.317184 C93.581952,446.526144 97.804672,450.747584 103.012992,450.747584 C108.221312,450.747584 112.444032,446.526144 112.444032,441.317184 C112.444032,436.108864 108.221312,431.886784 103.012992,431.886784 C97.804672,431.886784 93.581952,436.108864 93.581952,441.317184" id="Fill-37" fill="#B6D4FF"></path>
                    </g>
                </g>
                <g id="Group-36" transform="translate(859.600000, 205.200000)">
                    <polygon id="Fill-1" fill="#DCEEFF" points="0 720.4608 21.2272 720.4608 21.2272 651.4992 0 651.4992"></polygon>
                    <polygon id="Fill-2" fill="#DCEEFF" points="176.8136 720.4608 198.0408 720.4608 198.0408 651.4992 176.8136 651.4992"></polygon>
                    <polygon id="Fill-3" fill="#B6D4FF" points="75.2896 720.4608 96.516 720.4608 96.516 651.4992 75.2896 651.4992"></polygon>
                    <polygon id="Fill-4" fill="#B6D4FF" points="252.1024 720.4608 273.3296 720.4608 273.3296 651.4992 252.1024 651.4992"></polygon>
                    <polygon id="Fill-5" fill="#B6D4FF" points="75.1672 663.7352 273.2064 663.7352 273.2064 77.9288 75.1672 77.9288"></polygon>
                    <polygon id="Fill-6" fill="#DCEEFF" points="0.3992 663.7352 198.44 663.7352 198.44 77.9288 0.3992 77.9288"></polygon>
                    <path d="M135.17256,38.09416 C135.17256,54.92616 126.28056,69.69416 112.94296,77.92856 L63.97976,77.92856 C50.64136,69.69416 41.74936,54.92616 41.74936,38.09416 C41.74936,30.26136 43.67656,22.88696 47.07336,16.41096 L129.84936,16.41096 C133.24536,22.88696 135.17256,30.26136 135.17256,38.09416" id="Fill-7" fill="#DCEEFF"></path>
                    <polygon id="Fill-9" fill="#DCEEFF" points="147.5904 77.9184 167.7784 77.9184 167.7784 0.8 147.5904 0.8"></polygon>
                    <polygon id="Fill-11" fill="#CCE3FF" points="127.4016 77.9184 147.5896 77.9184 147.5896 0.8 127.4016 0.8"></polygon>
                    <polygon id="Fill-12" fill="#CCE3FF" points="167.7784 77.9184 187.9664 77.9184 187.9664 0.8 167.7784 0.8"></polygon>
                    <path d="M242.1984,77.9184 L187.9664,77.9184 L187.9664,0.8 L242.1984,0.8 C244.464,0.8 246.3008,2.636 246.3008,4.9024 L246.3008,73.816 C246.3008,76.0816 244.464,77.9184 242.1984,77.9184" id="Fill-13" fill="#B6D4FF"></path>
                    <polygon id="Fill-14" fill="#CCE3FF" points="205.7576 31.4512 228.5104 31.4512 228.5104 23.8152 205.7576 23.8152"></polygon>
                    <polygon id="Fill-15" fill="#CCE3FF" points="18.1272 644.432 180.788 644.432 180.788 475.8232 18.1272 475.8232"></polygon>
                    <polygon id="Fill-16" fill="#B6D4FF" points="18.128 644.432 74.2456 644.432 74.2456 475.8232 18.128 475.8232"></polygon>
                    <polygon id="Fill-17" fill="#CCE3FF" points="18.1272 454.8992 180.788 454.8992 180.788 286.2912 18.1272 286.2912"></polygon>
                    <polygon id="Fill-18" fill="#B6D4FF" points="18.128 454.8992 74.2456 454.8992 74.2456 286.2912 18.128 286.2912"></polygon>
                    <polygon id="Fill-19" fill="#CCE3FF" points="18.1272 265.3664 180.788 265.3664 180.788 96.7584 18.1272 96.7584"></polygon>
                    <polygon id="Fill-20" fill="#B6D4FF" points="18.128 265.3664 74.2456 265.3664 74.2456 96.7584 18.128 96.7584"></polygon>
                    <polygon id="Fill-21" fill="#DCEEFF" points="57.0744 644.432 73.1736 644.432 73.1736 582.9328 57.0744 582.9328"></polygon>
                    <polygon id="Fill-22" fill="#CCE3FF" points="40.9752 644.432 57.0744 644.432 57.0744 582.9328 40.9752 582.9328"></polygon>
                    <polygon id="Fill-23" fill="#CCE3FF" points="73.1736 644.432 89.2728 644.432 89.2728 582.9328 73.1736 582.9328"></polygon>
                    <path d="M131.68896,644.43168 L89.27216,644.43168 L89.27216,582.93248 L131.68896,582.93248 C133.95536,582.93248 135.79216,584.76928 135.79216,587.03488 L135.79216,640.32848 C135.79216,642.59488 133.95536,644.43168 131.68896,644.43168" id="Fill-24" fill="#B6D4FF"></path>
                    <polygon id="Fill-25" fill="#CCE3FF" points="96.1664 597.9808 128.8984 597.9808 128.8984 591.892 96.1664 591.892"></polygon>
                    <polygon id="Fill-26" fill="#CCE3FF" points="103.46 607.3752 121.6048 607.3752 121.6048 601.2864 103.46 601.2864"></polygon>
                    <path d="M113.42488,239.25432 C112.17688,249.74232 106.86488,258.99032 99.10568,265.36632 L48.36088,265.36632 C40.60168,258.99032 35.28888,249.74232 34.03368,239.25432 L113.42488,239.25432 Z" id="Fill-27" fill="#DCEEFF"></path>
                    <path d="M113.42488,217.45592 C111.06328,237.27752 94.19128,252.65592 73.73048,252.65592 C53.26888,252.65592 36.39768,237.27752 34.03528,217.45592 L113.42488,217.45592 Z" id="Fill-28" fill="#DCEEFF"></path>
                    <path d="M113.42488,195.68952 C112.17688,206.17752 106.86488,215.42552 99.10568,221.80152 L48.36088,221.80152 C40.60168,215.42552 35.28888,206.17752 34.03368,195.68952 L113.42488,195.68952 Z" id="Fill-29" fill="#DCEEFF"></path>
                    <path d="M113.42488,173.89032 C111.06328,193.71272 94.19128,209.09112 73.73048,209.09112 C53.26888,209.09112 36.39768,193.71272 34.03528,173.89032 L113.42488,173.89032 Z" id="Fill-30" fill="#DCEEFF"></path>
                    <path d="M87.28432,414.39504 C87.28432,429.83104 85.63872,443.94944 82.89472,454.89904 L54.13952,454.89904 C51.40112,443.94944 49.74912,429.83104 49.74912,414.39504" id="Fill-31" fill="#ECF6FF"></path>
                    <path d="M85.8616,421.17784 C92.3816,422.46504 96.624,428.79464 95.3368,435.31464 C94.0488,441.83464 87.72,446.07704 81.2,444.78984" id="Stroke-32" stroke="#ECF6FF" stroke-width="6.4"></path>
                    <path d="M144.88432,414.39504 C144.88432,429.83104 143.23872,443.94944 140.49472,454.89904 L111.73952,454.89904 C109.00112,443.94944 107.34912,429.83104 107.34912,414.39504" id="Fill-33" fill="#ECF6FF"></path>
                    <path d="M137.228,421.17784 C143.748,422.46504 147.9904,428.79464 146.7032,435.31464 C145.4152,441.83464 139.0864,446.07704 132.5664,444.78984" id="Stroke-34" stroke="#ECF6FF" stroke-width="6.4"></path>
                </g>
                <g id="Background-Object-/-Clock" transform="translate(540.000000, 113.500000) scale(-1, 1) translate(-540.000000, -113.500000) translate(462.000000, 42.000000)">
                    <g id="Group-14">
                        <path d="M155.4015,71.763 C155.4015,110.844 123.7195,142.526 84.6375,142.526 C45.5565,142.526 13.8755,110.844 13.8755,71.763 C13.8755,32.681 45.5565,1 84.6375,1 C123.7195,1 155.4015,32.681 155.4015,71.763" id="Fill-1" fill="#CCE3FF"></path>
                        <path d="M141.5265,71.763 C141.5265,110.844 109.8435,142.526 70.7625,142.526 C31.6815,142.526 0.0005,110.844 0.0005,71.763 C0.0005,32.681 31.6815,1 70.7625,1 C109.8435,1 141.5265,32.681 141.5265,71.763" id="Fill-4" fill="#DCEEFF"></path>
                        <path d="M124.3869,71.7577 C124.3869,99.3797 103.5099,122.1177 76.6849,125.0647 C74.7379,125.2797 72.7689,125.3867 70.7689,125.3867 C41.1469,125.3867 17.1389,101.3797 17.1389,71.7577 C17.1389,42.1467 41.1469,18.1387 70.7689,18.1387 C72.7689,18.1387 74.7379,18.2467 76.6849,18.4617 C103.5099,21.4087 124.3869,44.1467 124.3869,71.7577" id="Fill-6" fill="#CCE3FF"></path>
                        <path d="M124.3869,71.7577 C124.3869,99.3797 103.5099,122.1177 76.6849,125.0647 C49.8479,122.1177 28.9709,99.3797 28.9709,71.7577 C28.9709,44.1467 49.8479,21.4087 76.6849,18.4617 C103.5099,21.4087 124.3869,44.1467 124.3869,71.7577" id="Fill-8" fill="#ECF6FF"></path>
                        <path d="M73.089,41.9427 L90.464,79.8377" id="Stroke-10" stroke="#CCE3FF" stroke-width="8"></path>
                        <path d="M92.1193,63.951 L54.0593,105.321" id="Stroke-12" stroke="#CCE3FF" stroke-width="8"></path>
                    </g>
                </g>
                <g id="Group-8" transform="translate(696.000000, 0.000000)">
                    <polygon id="Fill-1" fill="#DCEEFF" points="7.865 105.747 133.12 105.747 133.12 0.499 7.865 0.499"></polygon>
                    <polygon id="Stroke-2" stroke="#DCEEFF" stroke-width="5" points="7.865 105.747 133.12 105.747 133.12 0.499 7.865 0.499"></polygon>
                    <polygon id="Fill-4" fill="#FFFFFF" points="0.5 105.889 125.754 105.889 125.754 0.641 0.5 0.641"></polygon>
                    <polygon id="Stroke-5" stroke="#DCEEFF" stroke-width="5" points="0.5 105.889 125.754 105.889 125.754 0.641 0.5 0.641"></polygon>
                    <polygon id="Fill-7" fill="#DCEEFF" points="21.833 84.145 102.636 84.145 102.636 22.102 21.833 22.102"></polygon>
                </g>
                <g id="Group-8" transform="translate(695.000000, 128.000000)">
                    <polygon id="Fill-1" fill="#DCEEFF" points="7.008 163.055 132.262 163.055 132.262 0.5 7.008 0.5"></polygon>
                    <polygon id="Stroke-2" stroke="#DCEEFF" stroke-width="5" points="7.008 163.055 132.262 163.055 132.262 0.5 7.008 0.5"></polygon>
                    <polygon id="Fill-4" fill="#FFFFFF" points="0.5 163.055 123.321 163.055 123.321 0.5 0.5 0.5"></polygon>
                    <polygon id="Stroke-5" stroke="#DCEEFF" stroke-width="5" points="0.5 163.055 123.321 163.055 123.321 0.5 0.5 0.5"></polygon>
                    <polygon id="Fill-7" fill="#DCEEFF" points="26.072 132.364 92.092 132.364 92.092 30.894 26.072 30.894"></polygon>
                </g>
                <g id="Group-24" transform="translate(576.400000, 616.500000)">
                    <path d="M109.79808,38.73359 C109.79808,60.12559 96.79208,77.46669 80.74808,77.46669 C64.70408,77.46669 51.69808,60.12559 51.69808,38.73359 C51.69808,17.34159 64.70408,0.00049 80.74808,0.00049 C96.79208,0.00049 109.79808,17.34159 109.79808,38.73359" id="Fill-1" fill="#CCE3FF"></path>
                    <path d="M80.96515,242.17417 L80.96515,40.70297" id="Stroke-3" stroke="#DCEEFF" stroke-width="6.3"></path>
                    <path d="M49.67977,95.63183 C63.39767,109.35043 66.17807,128.81113 55.88947,139.10043 C45.60087,149.38833 26.13947,146.60863 12.42087,132.89073 C-1.29703,119.17213 -4.07673,99.71073 6.21117,89.42213 C16.50047,79.13353 35.96117,81.91393 49.67977,95.63183" id="Fill-5" fill="#CCE3FF"></path>
                    <path d="M147.63056,123.81677 C158.69266,134.87887 155.70366,155.80327 140.95396,170.55297 C126.20496,185.30197 105.28056,188.29097 94.21846,177.22887" id="Fill-8" fill="#CCE3FF"></path>
                    <path d="M132.72756,143.30295 L81.82496,194.35115" id="Stroke-10" stroke="#DCEEFF" stroke-width="6.3"></path>
                    <path d="M118.01902,94.48579 L80.81962,131.24769" id="Stroke-12" stroke="#DCEEFF" stroke-width="6.3"></path>
                    <path d="M42.19446,175.18025 L81.05636,214.47965" id="Stroke-14" stroke="#DCEEFF" stroke-width="6.3"></path>
                    <path d="M28.79877,112.27356 L80.74787,164.84146" id="Stroke-16" stroke="#DCEEFF" stroke-width="6.3"></path>
                    <path d="M96.54288,311.36616 L65.38798,311.36616 C41.45848,311.36616 21.88018,291.78786 21.88018,267.85836 L21.88018,226.91816 L140.05068,226.91816 L140.05068,267.85836 C140.05068,291.78786 120.47238,311.36616 96.54288,311.36616" id="Fill-18" fill="#ECF6FF"></path>
                    <path d="M140.05054,249.6732 L21.88004,249.6732" id="Stroke-20" stroke="#DCEEFF" stroke-width="6.3"></path>
                    <path d="M140.05054,272.49733 L21.88004,272.49733" id="Stroke-22" stroke="#DCEEFF" stroke-width="6.3"></path>
                </g>
            </g>
        </g>
    </g>
</svg>