<?xml version="1.0" encoding="UTF-8"?>
<svg width="1908px" height="985px" viewBox="0 0 1908 985" version="1.1" xmlns="http://www.w3.org/2000/svg" xmlns:xlink="http://www.w3.org/1999/xlink">
    <!-- Generator: Sketch 51.3 (57544) - http://www.bohemiancoding.com/sketch -->
    <title>Illustration 17</title>
    <desc>Created with Sketch.</desc>
    <defs></defs>
    <g id="Scene" stroke="none" stroke-width="1" fill="none" fill-rule="evenodd">
        <g id="Illustration-17" transform="translate(-167.000000, -60.000000)">
            <g id="Background">
                <g id="Group-25" transform="translate(1455.000000, 59.000000)">
                    <path d="M261.0464,22.9212 L261.0464,566.5602" id="Stroke-1" stroke="#ECF6FF" stroke-width="22"></path>
                    <path d="M252.979,3.4295 L252.979,568.3175" id="Stroke-3" stroke="#DCEEFF" stroke-width="17"></path>
                    <path d="M436.5132,0.9998 L436.5132,569.6898" id="Stroke-5" stroke="#B6D4FF" stroke-width="20"></path>
                    <path d="M91.0386,5.6473 L91.0386,564.6183" id="Stroke-8" stroke="#ECF6FF" stroke-width="22"></path>
                    <path d="M69.963,569.69 L430.326,569.69 L430.326,0.999 L69.963,0.999 L69.963,569.69 Z M91.964,547.69 L408.326,547.69 L408.326,23 L91.964,23 L91.964,547.69 Z" id="Fill-11" fill="#DCEEFF"></path>
                    <polygon id="Fill-12" fill="#CCE3FF" points="0.001 597.721 446.359 597.721 446.359 569.69 0.001 569.69"></polygon>
                    <polygon id="Fill-13" fill="#B6D4FF" points="342.563 597.721 453.128 597.721 453.128 569.69 342.563 569.69"></polygon>
                    <path d="M97.3237,199.8001 L430.3257,199.8001" id="Stroke-14" stroke="#DCEEFF" stroke-width="17"></path>
                    <path d="M97.3237,376.4446 L430.3257,376.4446" id="Stroke-16" stroke="#DCEEFF" stroke-width="17"></path>
                    <path d="M324.5942,537.0501 C323.0332,550.1601 316.3942,561.7201 306.6942,569.6901 L243.2642,569.6901 C233.5642,561.7201 226.9242,550.1601 225.3542,537.0501 L324.5942,537.0501 Z" id="Fill-18" fill="#B6D4FF"></path>
                    <path d="M324.5942,509.8016 C321.6412,534.5796 300.5522,553.8026 274.9752,553.8026 C249.3992,553.8026 228.3092,534.5796 225.3572,509.8016 L324.5942,509.8016 Z" id="Fill-20" fill="#B6D4FF"></path>
                    <path d="M138.4038,549.1331 L149.1728,444.1931 L182.8458,444.1931 L193.6148,549.1331 C194.7428,560.1301 186.1138,569.6901 175.0588,569.6901 L156.9598,569.6901 C145.9048,569.6901 137.2748,560.1301 138.4038,549.1331" id="Fill-22" fill="#CCE3FF"></path>
                </g>
                <g id="Background-Object-/-Window-/-1" transform="translate(472.000000, 358.000000) scale(-1, 1) translate(-472.000000, -358.000000) translate(245.000000, 59.000000)">
                    <g id="Group-25">
                        <path d="M261.0464,22.9212 L261.0464,566.5602" id="Stroke-1" stroke="#ECF6FF" stroke-width="22"></path>
                        <path d="M252.979,3.4295 L252.979,568.3175" id="Stroke-3" stroke="#DCEEFF" stroke-width="17"></path>
                        <path d="M436.5132,0.9998 L436.5132,569.6898" id="Stroke-5" stroke="#B6D4FF" stroke-width="20"></path>
                        <path d="M91.0386,5.6473 L91.0386,564.6183" id="Stroke-8" stroke="#ECF6FF" stroke-width="22"></path>
                        <path d="M69.963,569.69 L430.326,569.69 L430.326,0.999 L69.963,0.999 L69.963,569.69 Z M91.964,547.69 L408.326,547.69 L408.326,23 L91.964,23 L91.964,547.69 Z" id="Fill-11" fill="#DCEEFF"></path>
                        <polygon id="Fill-12" fill="#CCE3FF" points="0.001 597.721 446.359 597.721 446.359 569.69 0.001 569.69"></polygon>
                        <polygon id="Fill-13" fill="#B6D4FF" points="342.563 597.721 453.128 597.721 453.128 569.69 342.563 569.69"></polygon>
                        <path d="M97.3237,199.8001 L430.3257,199.8001" id="Stroke-14" stroke="#DCEEFF" stroke-width="17"></path>
                        <path d="M97.3237,376.4446 L430.3257,376.4446" id="Stroke-16" stroke="#DCEEFF" stroke-width="17"></path>
                        <path d="M324.5942,537.0501 C323.0332,550.1601 316.3942,561.7201 306.6942,569.6901 L243.2642,569.6901 C233.5642,561.7201 226.9242,550.1601 225.3542,537.0501 L324.5942,537.0501 Z" id="Fill-18" fill="#B6D4FF"></path>
                        <path d="M324.5942,509.8016 C321.6412,534.5796 300.5522,553.8026 274.9752,553.8026 C249.3992,553.8026 228.3092,534.5796 225.3572,509.8016 L324.5942,509.8016 Z" id="Fill-20" fill="#B6D4FF"></path>
                        <path d="M138.4038,549.1331 L149.1728,444.1931 L182.8458,444.1931 L193.6148,549.1331 C194.7428,560.1301 186.1138,569.6901 175.0588,569.6901 L156.9598,569.6901 C145.9048,569.6901 137.2748,560.1301 138.4038,549.1331" id="Fill-22" fill="#CCE3FF"></path>
                    </g>
                </g>
                <g id="Group-42" transform="translate(878.400000, 410.400000)">
                    <polygon id="Fill-1" fill="#DCEEFF" points="212.13568 164.7152 333.93888 164.7152 350.38688 0.4 228.58448 0.4"></polygon>
                    <polygon id="Stroke-2" stroke="#DCEEFF" stroke-width="4" points="212.13568 164.7152 333.93888 164.7152 350.38688 0.4 228.58448 0.4"></polygon>
                    <polygon id="Fill-4" fill="#FFFFFF" points="205.56144 164.7152 329.63024 164.7152 346.07824 0.4 222.00944 0.4"></polygon>
                    <polygon id="Stroke-5" stroke="#DCEEFF" stroke-width="4" points="205.56144 164.7152 329.63024 164.7152 346.07824 0.4 222.00944 0.4"></polygon>
                    <polygon id="Fill-7" fill="#DCEEFF" points="229.32392 143.01904 310.21112 143.01904 322.31592 22.09664 241.42872 22.09664"></polygon>
                    <path d="M133.94576,133.01832 L128.46656,133.01832 C102.91616,133.01832 82.20256,112.30472 82.20256,86.75352 L180.20976,86.75352 C180.20976,112.30472 159.49616,133.01832 133.94576,133.01832" id="Fill-8" fill="#ECF6FF"></path>
                    <path d="M83.73488,133.01832 C83.73488,138.54152 88.21248,143.01912 93.73488,143.01912 L183.71008,143.01912 L183.71008,123.01832 L93.73488,123.01832 C88.21248,123.01832 83.73488,127.49592 83.73488,133.01832" id="Fill-10" fill="#DCEEFF"></path>
                    <path d="M144.25048,133.01832 C144.25048,136.21592 146.84248,138.80792 150.04008,138.80792 L183.46888,138.80792 C183.60168,138.80792 183.70968,138.70072 183.70968,138.56712 L183.70968,127.46952 C183.70968,127.33672 183.60168,127.22952 183.46888,127.22952 L150.04008,127.22952 C146.84248,127.22952 144.25048,129.82072 144.25048,133.01832" id="Fill-12" fill="#ECF6FF"></path>
                    <path d="M71.17704,143.01904 L71.17704,163.01984 L169.38424,163.01984 C174.90664,163.01984 179.38424,158.54224 179.38424,153.01904 C179.38424,147.49664 174.90664,143.01904 169.38424,143.01904 L71.17704,143.01904 Z" id="Fill-14" fill="#DCEEFF"></path>
                    <path d="M71.17704,147.28552 L71.17704,158.75352 L111.55624,158.75352 C114.72264,158.75352 117.28984,156.18632 117.28984,153.01912 C117.28984,149.85272 114.72264,147.28552 111.55624,147.28552 L71.17704,147.28552 Z" id="Fill-16" fill="#ECF6FF"></path>
                    <polygon id="Fill-18" fill="#CCE3FF" points="71.1768 522.964 339.9456 522.964 339.9456 246.3472 71.1768 246.3472"></polygon>
                    <polygon id="Fill-20" fill="#DCEEFF" points="322.6408 522.964 360.968 522.964 360.968 254.2248 322.6408 254.2248"></polygon>
                    <polygon id="Fill-21" fill="#DCEEFF" points="37.9808 258.4944 360.9688 258.4944 360.9688 186.864 37.9808 186.864"></polygon>
                    <polygon id="Fill-22" fill="#CCE3FF" points="0 186.8648 403.0544 186.8648 403.0544 162.316 0 162.316"></polygon>
                    <polygon id="Fill-23" fill="#B6D4FF" points="360.9688 522.964 379.6688 522.964 379.6688 186.8648 360.9688 186.8648"></polygon>
                    <polygon id="Fill-24" fill="#B6D4FF" points="76.3072 522.964 88.4816 522.964 88.4816 258.7632 76.3072 258.7632"></polygon>
                    <polygon id="Fill-25" fill="#B6D4FF" points="375.8768 186.8648 414.6048 186.8648 414.6048 162.316 375.8768 162.316"></polygon>
                    <polygon id="Fill-26" fill="#DCEEFF" points="37.98 522.964 76.3072 522.964 76.3072 246.0192 37.98 246.0192"></polygon>
                    <polygon id="Fill-27" fill="#DCEEFF" points="27.2584 522.964 76.308 522.964 76.308 455.2376 27.2584 455.2376"></polygon>
                    <polygon id="Fill-28" fill="#DCEEFF" points="322.6408 522.964 372.0936 522.964 372.0936 455.2376 322.6408 455.2376"></polygon>
                    <path d="M156.54968,512.52144 C156.54968,512.52144 112.42808,486.65264 165.59688,411.39504 C165.59688,411.39504 192.96648,443.35504 203.50408,405.48704 C203.50408,405.48704 233.33368,452.77744 213.96728,481.33744" id="Fill-29" fill="#ECF6FF"></path>
                    <path d="M254.36376,515.1472 C254.36376,515.1472 294.08856,483.2712 261.92456,419.1072 C261.92456,419.1072 215.81256,468.3384 204.16056,377.0976 C204.16056,377.0976 170.48776,445.9848 191.64296,479.0464" id="Fill-30" fill="#ECF6FF"></path>
                    <polygon id="Fill-31" fill="#DCEEFF" points="146.1096 522.964 266.2936 522.964 266.2936 498.0488 146.1096 498.0488"></polygon>
                    <polygon id="Fill-32" fill="#DCEEFF" points="260.41144 483.94176 252.16744 460.54896 153.80584 498.02976 162.05064 521.42416"></polygon>
                    <polygon id="Fill-33" fill="#DCEEFF" points="254.4216 522.4964 263.0512 496.4164 166.8536 462.0004 158.2248 488.0796"></polygon>
                    <polygon id="Fill-34" fill="#B6D4FF" points="369.2176 522.964 390.7016 522.964 390.7016 455.2376 369.2176 455.2376"></polygon>
                    <polygon id="Stroke-35" stroke="#B6D4FF" stroke-width="4" points="116.0264 517.4448 146.3872 517.4448 146.3872 313.336 116.0264 313.336"></polygon>
                    <polygon id="Stroke-36" stroke="#B6D4FF" stroke-width="4" points="146.3872 517.4448 176.748 517.4448 176.748 313.336 146.3872 313.336"></polygon>
                    <polygon id="Stroke-37" stroke="#B6D4FF" stroke-width="4" points="176.748 517.4448 207.1088 517.4448 207.1088 313.336 176.748 313.336"></polygon>
                    <polygon id="Stroke-38" stroke="#B6D4FF" stroke-width="4" points="207.1096 517.4448 237.4704 517.4448 237.4704 313.336 207.1096 313.336"></polygon>
                    <polygon id="Stroke-39" stroke="#B6D4FF" stroke-width="4" points="237.4704 517.4448 267.8312 517.4448 267.8312 313.336 237.4704 313.336"></polygon>
                    <polygon id="Stroke-40" stroke="#B6D4FF" stroke-width="4" points="267.8312 517.4448 298.192 517.4448 298.192 313.336 267.8312 313.336"></polygon>
                </g>
                <g id="Group-14" transform="translate(363.000000, 569.000000)">
                    <path d="M259.6459,230.9397 L259.6459,232.5997 C259.6459,246.4497 248.9009,257.6687 235.6579,257.6687 L47.7539,257.6687 C18.7699,257.6687 -3.5351,229.8597 0.4649,198.6997 L21.6789,25.0797 C23.5159,10.6997 34.8359,-0.0003 48.2129,-0.0003 L103.9039,-0.0003 C117.2719,-0.0003 128.5909,10.6997 130.4389,25.0797 L151.6529,198.6997 C151.8149,199.9397 151.9299,201.1797 151.9979,202.4097 L152.1119,202.3897 C152.1119,202.3897 156.0359,230.9397 192.5109,230.9397 L259.6459,230.9397 Z" id="Fill-1" fill="#DCEEFF"></path>
                    <path d="M59.6068,453.2415 C59.6068,462.0965 52.4268,469.2755 43.5718,469.2755 C34.7158,469.2755 27.5378,462.0965 27.5378,453.2415 C27.5378,444.3865 34.7158,437.2065 43.5718,437.2065 C52.4268,437.2065 59.6068,444.3865 59.6068,453.2415" id="Fill-4" fill="#B6D4FF"></path>
                    <path d="M205.9232,456.4563 L47.4622,456.4563 C41.3932,456.4563 36.4272,451.4903 36.4272,445.4213 C36.4272,439.3523 41.3932,434.3853 47.4622,434.3853 L205.9232,434.3853 C211.9922,434.3853 216.9582,439.3523 216.9582,445.4213 C216.9582,451.4903 211.9922,456.4563 205.9232,456.4563" id="Fill-6" fill="#CCE3FF"></path>
                    <polygon id="Fill-8" fill="#CCE3FF" points="118.562 451.208 134.824 451.208 134.824 257 118.562 257"></polygon>
                    <polygon id="Fill-10" fill="#CCE3FF" points="182.4135 257.0003 126.6925 282.3763 70.9725 257.0003"></polygon>
                    <path d="M127.9252,456.4563 L107.3632,456.4563 C101.2932,456.4563 96.3272,451.4903 96.3272,445.4213 C96.3272,439.3523 101.2932,434.3853 107.3632,434.3853 L127.9252,434.3853 C133.9942,434.3853 138.9602,439.3523 138.9602,445.4213 C138.9602,451.4903 133.9942,456.4563 127.9252,456.4563" id="Fill-11" fill="#B6D4FF"></path>
                    <path d="M114.4369,453.2415 C114.4369,462.0965 107.2579,469.2755 98.4029,469.2755 C89.5459,469.2755 82.3679,462.0965 82.3679,453.2415 C82.3679,444.3865 89.5459,437.2065 98.4029,437.2065 C107.2579,437.2065 114.4369,444.3865 114.4369,453.2415" id="Fill-12" fill="#B6D4FF"></path>
                    <path d="M226.9096,453.2415 C226.9096,462.0965 219.7306,469.2755 210.8746,469.2755 C202.0186,469.2755 194.8406,462.0965 194.8406,453.2415 C194.8406,444.3865 202.0186,437.2065 210.8746,437.2065 C219.7306,437.2065 226.9096,444.3865 226.9096,453.2415" id="Fill-13" fill="#B6D4FF"></path>
                </g>
                <g id="Group-24" transform="translate(167.200000, 778.000000)">
                    <path d="M94.11264,33.20022 C94.11264,51.53622 82.96464,66.40002 69.21264,66.40002 C55.46064,66.40002 44.31264,51.53622 44.31264,33.20022 C44.31264,14.86422 55.46064,0.00042 69.21264,0.00042 C82.96464,0.00042 94.11264,14.86422 94.11264,33.20022" id="Fill-1" fill="#CCE3FF"></path>
                    <path d="M69.3987,207.57786 L69.3987,34.88826" id="Stroke-3" stroke="#DCEEFF" stroke-width="5.4"></path>
                    <path d="M42.58266,81.97014 C54.34086,93.72894 56.72406,110.40954 47.90526,119.22894 C39.08646,128.04714 22.40526,125.66454 10.64646,113.90634 C-1.11174,102.14754 -3.49434,85.46634 5.32386,76.64754 C14.14326,67.82874 30.82386,70.21194 42.58266,81.97014" id="Fill-5" fill="#CCE3FF"></path>
                    <path d="M126.54048,106.12866 C136.02228,115.61046 133.46028,133.54566 120.81768,146.18826 C108.17568,158.83026 90.24048,161.39226 80.75868,151.91046" id="Fill-8" fill="#CCE3FF"></path>
                    <path d="M113.76648,122.8311 L70.13568,166.5867" id="Stroke-10" stroke="#DCEEFF" stroke-width="5.4"></path>
                    <path d="M101.15916,80.98782 L69.27396,112.49802" id="Stroke-12" stroke="#DCEEFF" stroke-width="5.4"></path>
                    <path d="M36.16668,150.1545 L69.47688,183.8397" id="Stroke-14" stroke="#DCEEFF" stroke-width="5.4"></path>
                    <path d="M24.68466,96.23448 L69.21246,141.29268" id="Stroke-16" stroke="#DCEEFF" stroke-width="5.4"></path>
                    <path d="M82.75104,266.88528 L56.04684,266.88528 C35.53584,266.88528 18.75444,250.10388 18.75444,229.59288 L18.75444,194.50128 L120.04344,194.50128 L120.04344,229.59288 C120.04344,250.10388 103.26204,266.88528 82.75104,266.88528" id="Fill-18" fill="#ECF6FF"></path>
                    <path d="M120.04332,214.0056 L18.75432,214.0056" id="Stroke-20" stroke="#DCEEFF" stroke-width="5.4"></path>
                    <path d="M120.04332,233.56914 L18.75432,233.56914" id="Stroke-22" stroke="#DCEEFF" stroke-width="5.4"></path>
                </g>
                <g id="Group-33" transform="translate(1763.200000, 836.600000)">
                    <path d="M90.48402,29.63424 C92.95962,46.39164 84.54402,60.68424 84.54402,60.68424 C84.54402,60.68424 72.11382,47.80824 69.63762,31.05024 C67.16202,14.29284 75.57822,0.00024 75.57822,0.00024 C75.57822,0.00024 88.00842,12.87684 90.48402,29.63424" id="Fill-1" fill="#E9F6FF"></path>
                    <path d="M86.86206,40.58106 C97.93386,55.65606 97.53306,71.04366 97.53306,71.04366 C97.53306,71.04366 79.18086,61.99026 68.10906,46.91526 C57.03726,31.84026 57.43806,16.45206 57.43806,16.45206 C57.43806,16.45206 75.79026,25.50606 86.86206,40.58106" id="Fill-3" fill="#E9F6FF"></path>
                    <path d="M100.76196,31.4568 C97.82136,48.18 85.03536,60.8952 85.03536,60.8952 C85.03536,60.8952 77.01816,46.497 79.95876,29.7744 C82.89936,13.0512 95.68536,0.336 95.68536,0.336 C95.68536,0.336 103.70256,14.7336 100.76196,31.4568" id="Fill-5" fill="#E9F6FF"></path>
                    <path d="M109.98258,43.57134 C100.71678,59.19654 83.48658,69.21294 83.48658,69.21294 C83.48658,69.21294 81.27918,53.89614 90.54498,38.27094 C99.81018,22.64514 117.04038,12.62874 117.04038,12.62874 C117.04038,12.62874 119.24778,27.94614 109.98258,43.57134" id="Fill-7" fill="#E9F6FF"></path>
                    <path d="M174.38094,93.4335 C174.38094,126.5463 135.41754,153.3903 87.35334,153.3903 C39.28914,153.3903 0.32574,126.5463 0.32574,93.4335 C0.32574,60.3201 39.28914,33.4767 87.35334,33.4767 C135.41754,33.4767 174.38094,60.3201 174.38094,93.4335" id="Fill-9" fill="#CCE3FF"></path>
                    <path d="M141.25848,200.31288 L42.27108,200.31288 C27.07908,200.31288 14.76348,187.99728 14.76348,172.80528 L14.76348,168.06408 C14.76348,152.87268 27.07908,140.55648 42.27108,140.55648 L141.25848,140.55648 C156.45048,140.55648 168.76608,152.87268 168.76608,168.06408 L168.76608,172.80528 C168.76608,187.99728 156.45048,200.31288 141.25848,200.31288" id="Fill-11" fill="#DCEEFF"></path>
                    <path d="M37.62312,51.12294 L21.58152,38.69034" id="Stroke-13" stroke="#B6D4FF" stroke-width="5.4"></path>
                    <path d="M14.76336,115.45128 L0.32556,125.33928" id="Stroke-15" stroke="#B6D4FF" stroke-width="5.4"></path>
                    <path d="M56.72436,110.0577 L81.63936,114.1005" id="Stroke-17" stroke="#B6D4FF" stroke-width="5.4"></path>
                    <path d="M120.43572,49.10028 L135.47892,30.61548" id="Stroke-19" stroke="#B6D4FF" stroke-width="5.4"></path>
                    <path d="M147.91176,69.21318 L164.35476,58.74258" id="Stroke-21" stroke="#B6D4FF" stroke-width="5.4"></path>
                    <path d="M151.12008,123.31158 L166.76088,133.33758" id="Stroke-23" stroke="#B6D4FF" stroke-width="5.4"></path>
                    <path d="M63.95658,73.35486 L56.51418,56.14806" id="Stroke-25" stroke="#FFFFFF" stroke-width="5.4"></path>
                    <path d="M135.15594,92.1195 L117.27054,100.5873" id="Stroke-27" stroke="#FFFFFF" stroke-width="5.4"></path>
                    <path d="M48.6396,82.27842 L31.6122,71.01342" id="Stroke-29" stroke="#FFFFFF" stroke-width="5.4"></path>
                    <polyline id="Stroke-31" stroke="#B6D4FF" stroke-width="5.4" points="14.76336 164.43126 45.56196 176.43846 76.36176 164.43126 107.16036 176.43846 137.96316 164.43126 168.76596 176.43846"></polyline>
                </g>
                <g id="Group-16" transform="translate(1971.200000, 766.000000)">
                    <path d="M97.82514,33.68928 C97.82514,33.68928 51.82074,135.22788 46.32774,245.62788 C46.32774,245.62788 72.07614,133.75128 97.82514,33.68928" id="Fill-1" fill="#DCEEFF"></path>
                    <path d="M15.51318,111.72036 C15.51318,111.72036 48.62538,112.58196 53.66658,222.98196 C53.66658,222.98196 39.53598,139.65876 15.51318,111.72036" id="Fill-3" fill="#DCEEFF"></path>
                    <path d="M49.32588,0.59964 C49.32588,0.59964 68.65548,117.40404 49.62948,236.25924 C49.62948,236.25924 50.75988,112.12284 49.32588,0.59964" id="Fill-5" fill="#DCEEFF"></path>
                    <path d="M75.40014,267.51528 L27.59394,267.51528 C27.23514,267.51528 26.87754,267.50868 26.52114,267.49548 C4.72254,266.68068 -7.40526,239.10828 4.94034,219.21588 L15.89214,201.57108 L87.10194,201.57108 L98.05314,219.21588 C110.39934,239.10828 98.27154,266.68068 76.47294,267.49548 C76.11654,267.50868 75.75954,267.51528 75.40014,267.51528" id="Fill-8" fill="#ECF6FF"></path>
                    <path d="M-6e-05,242.15358 L102.99414,242.15358" id="Stroke-11" stroke="#B6D4FF" stroke-width="5.4"></path>
                    <path d="M2.39052,225.10014 L100.93512,225.10014" id="Stroke-14" stroke="#B6D4FF" stroke-width="5.4"></path>
                </g>
                <g id="Group-14" transform="translate(1007.000000, 63.000000)">
                    <path d="M155.4015,70.763 C155.4015,109.844 123.7195,141.526 84.6375,141.526 C45.5565,141.526 13.8755,109.844 13.8755,70.763 C13.8755,31.681 45.5565,0 84.6375,0 C123.7195,0 155.4015,31.681 155.4015,70.763" id="Fill-1" fill="#CCE3FF"></path>
                    <path d="M141.5265,70.763 C141.5265,109.844 109.8435,141.526 70.7625,141.526 C31.6815,141.526 0.0005,109.844 0.0005,70.763 C0.0005,31.681 31.6815,0 70.7625,0 C109.8435,0 141.5265,31.681 141.5265,70.763" id="Fill-4" fill="#DCEEFF"></path>
                    <path d="M124.3869,70.7577 C124.3869,98.3797 103.5099,121.1177 76.6849,124.0647 C74.7379,124.2797 72.7689,124.3867 70.7689,124.3867 C41.1469,124.3867 17.1389,100.3797 17.1389,70.7577 C17.1389,41.1467 41.1469,17.1387 70.7689,17.1387 C72.7689,17.1387 74.7379,17.2467 76.6849,17.4617 C103.5099,20.4087 124.3869,43.1467 124.3869,70.7577" id="Fill-6" fill="#CCE3FF"></path>
                    <path d="M124.3869,70.7577 C124.3869,98.3797 103.5099,121.1177 76.6849,124.0647 C49.8479,121.1177 28.9709,98.3797 28.9709,70.7577 C28.9709,43.1467 49.8479,20.4087 76.6849,17.4617 C103.5099,20.4087 124.3869,43.1467 124.3869,70.7577" id="Fill-8" fill="#ECF6FF"></path>
                    <path d="M73.089,40.9427 L90.464,78.8377" id="Stroke-10" stroke="#CCE3FF" stroke-width="8"></path>
                    <path d="M92.1193,62.951 L54.0593,104.321" id="Stroke-12" stroke="#CCE3FF" stroke-width="8"></path>
                </g>
            </g>
        </g>
    </g>
</svg>